<svg width="685" height="941" viewBox="0 0 685 941" fill="none" xmlns="http://www.w3.org/2000/svg">
<path fill-rule="evenodd" clip-rule="evenodd" d="M480.437 656.018C438.236 674.605 391.573 684.925 342.5 684.925C259.69 684.925 183.744 655.539 124.523 606.628C108.334 634.91 99.0806 667.672 99.0806 702.594C99.0806 809.449 185.713 896.072 292.58 896.072C399.447 896.072 486.08 809.449 486.08 702.594C486.08 686.536 484.124 670.936 480.437 656.018ZM455.14 597.603C420.779 613.489 382.507 622.353 342.164 622.353C274.662 622.353 212.957 597.538 165.674 556.534C199.648 526.997 244.026 509.115 292.58 509.115C360.74 509.115 420.669 544.353 455.14 597.603ZM503.73 568.577C460.723 497.059 382.361 449.212 292.822 449.212C228.571 449.212 170.075 473.849 126.268 514.191C92.6074 469.22 72.6719 413.383 72.6719 352.891C72.6719 204.071 193.327 83.4289 342.164 83.4289C491 83.4289 611.655 204.071 611.655 352.891C611.655 441.107 569.26 519.422 503.73 568.577ZM529.815 629.217C623.264 568.063 685 462.471 685 342.462C685 153.326 531.658 0 342.5 0C153.342 0 0 153.326 0 342.462C0 428.039 31.3925 506.285 83.291 566.314C60.2136 603.771 46.9009 647.884 46.9009 695.106C46.9009 830.909 157.004 941 292.822 941C428.641 941 538.743 830.909 538.743 695.106C538.743 672.283 535.634 650.187 529.815 629.217Z" fill="url(#paint0_angular)" fill-opacity="0.72"/>
<defs>
<radialGradient id="paint0_angular" cx="0" cy="0" r="1" gradientUnits="userSpaceOnUse" gradientTransform="translate(510.608 342.462) rotate(90) scale(342.462 174.392)">
<stop offset="0.2375" stop-color="#FFFAFA"/>
<stop offset="1" stop-color="#7FC0FD" stop-opacity="0.97"/>
</radialGradient>
</defs>
</svg>
